HIERARCHY
ROOT Hips
{
	OFFSET 0.000000 0.000000 0.000000
	CHANNELS 6 Xposition Yposition Zposition Yrotation Xrotation Zrotation 
	JOINT LeftHip
	{
		OFFSET 0.094196 0.000343 -0.000038
		CHANNELS 3 Yrotation Xrotation Zrotation
		JOINT LeftKnee
		{
			OFFSET 0.000000 -0.468901 0.000041
			CHANNELS 3 Yrotation Xrotation Zrotation
			JOINT LeftAnkle
			{
				OFFSET 0.000000 -0.397674 0.000438
				CHANNELS 3 Yrotation Xrotation Zrotation
				JOINT LeftToe
				{
					OFFSET 0.000000 -0.090712 0.195501
					CHANNELS 3 Yrotation Xrotation Zrotation
					End Site
					{
						OFFSET 0.000000 0.000000 0.000000
					}
				}
			}
		}
	}
	JOINT RightHip
	{
		OFFSET -0.094196 0.000364 -0.000040
		CHANNELS 3 Yrotation Xrotation Zrotation
		JOINT RightKnee
		{
			OFFSET 0.000000 -0.468901 0.000041
			CHANNELS 3 Yrotation Xrotation Zrotation
			JOINT RightAnkle
			{
				OFFSET 0.000000 -0.397674 0.000438
				CHANNELS 3 Yrotation Xrotation Zrotation
				JOINT RightToe
				{
					OFFSET 0.000000 -0.090712 0.195501
					CHANNELS 3 Yrotation Xrotation Zrotation
					End Site
					{
						OFFSET 0.000000 0.000000 0.000000
					}
				}
			}
		}
	}
	JOINT Chest
	{
		OFFSET 0.000000 0.113860 -0.012651
		CHANNELS 3 Yrotation Xrotation Zrotation
		JOINT Chest3
		{
			OFFSET 0.000249 0.210437 -0.011343
			CHANNELS 3 Yrotation Xrotation Zrotation
			JOINT Chest4
			{
				OFFSET 0.000000 0.100637 -0.000145
				CHANNELS 3 Yrotation Xrotation Zrotation
				JOINT Neck
				{
					OFFSET 0.000000 0.138831 0.000000
					CHANNELS 3 Yrotation Xrotation Zrotation
					JOINT Head
					{
						OFFSET 0.000000 0.095420 0.000176
						CHANNELS 3 Yrotation Xrotation Zrotation
						End Site
						{
							OFFSET 0.000000 0.000000 0.000000
						}
					}
				}
				JOINT LeftCollar
				{
					OFFSET 0.029338 0.077908 0.000000
					CHANNELS 3 Yrotation Xrotation Zrotation
					JOINT LeftShoulder
					{
						OFFSET 0.140442 0.000000 0.000000
						CHANNELS 3 Yrotation Xrotation Zrotation
						JOINT LeftElbow
						{
							OFFSET 0.303173 0.000000 0.000000
							CHANNELS 3 Yrotation Xrotation Zrotation
							JOINT LeftWrist
							{
								OFFSET 0.261212 0.000000 0.000049
								CHANNELS 3 Yrotation Xrotation Zrotation
								End Site
								{
									OFFSET 0.000000 0.000000 0.000000
								}
							}
						}
					}
				}
				JOINT RightCollar
				{
					OFFSET -0.029338 0.077908 0.000000
					CHANNELS 3 Yrotation Xrotation Zrotation
					JOINT RightShoulder
					{
						OFFSET -0.140442 0.000000 0.000000
						CHANNELS 3 Yrotation Xrotation Zrotation
						JOINT RightElbow
						{
							OFFSET -0.303173 0.000000 0.000000
							CHANNELS 3 Yrotation Xrotation Zrotation
							JOINT RightWrist
							{
								OFFSET -0.261212 0.000000 0.000049
								CHANNELS 3 Yrotation Xrotation Zrotation
								End Site
								{
									OFFSET 0.000000 0.000000 0.000000
								}
							}
						}
					}
				}
			}
		}
	}
}
MOTION
Frames: 7
Frame Time: 0.016667
0.000000 0.000000 0.000000 -159.063510 5.668928 0.370161 -1.549664 -0.427378 1.431956 -0.373451 -0.497834 0.062276 12.138986 -4.121731 -1.672587 0.000000 -0.000000 0.000000 -2.973316 0.348641 -0.427131 -0.591125 0.452863 -0.347754 -7.979215 -6.091422 0.330999 0.000000 -0.000000 0.000000 0.944313 -1.230187 -0.203537 0.857574 -6.925891 -0.181206 0.315671 5.421731 -0.033511 -1.139114 14.819115 0.153173 -2.193548 -8.496719 0.719376 -1.345568 4.593833 -6.060496 -9.918916 -13.231390 -78.737248 -1.315639 27.425875 4.620588 0.558840 1.742687 4.070149 2.877888 5.939611 11.013586 8.487486 -12.878382 74.824166 -2.062596 23.687243 -7.952346 -2.162410 -2.800982 3.820415 
0.000000 0.000000 0.000000 -159.067735 5.670463 0.368932 -1.542742 -0.425910 1.434363 -0.376543 -0.496798 0.062566 12.140640 -4.126689 -1.673871 0.000000 -0.000000 0.000000 -2.974741 0.348983 -0.424959 -0.584651 0.454461 -0.346635 -7.978312 -6.095129 0.329766 0.000000 -0.000000 0.000000 0.941480 -1.231361 -0.203388 0.855043 -6.926933 -0.181076 0.314722 5.421342 -0.033562 -1.139477 14.823968 0.158635 -2.196223 -8.487591 0.729656 -1.347972 4.589156 -6.059654 -9.921188 -13.226335 -78.737169 -1.315978 27.425779 4.622903 0.554629 1.750101 4.068528 2.870803 5.939050 11.007915 8.484881 -12.881423 74.827700 -2.057207 23.702138 -7.952543 -2.161175 -2.799760 3.816832 
0.000000 0.000000 0.000000 -159.072953 5.671628 0.367369 -1.536281 -0.423851 1.437091 -0.377814 -0.495959 0.062690 12.141823 -4.131658 -1.675200 0.000000 -0.000000 0.000000 -2.979052 0.349385 -0.422931 -0.575122 0.456440 -0.344848 -7.976254 -6.098947 0.328516 0.000000 -0.000000 0.000000 0.939121 -1.231566 -0.203217 0.852931 -6.927115 -0.180925 0.313932 5.421275 -0.033590 -1.140875 14.828258 0.164478 -2.200989 -8.479482 0.741054 -1.350358 4.583347 -6.059356 -9.923854 -13.220003 -78.734771 -1.319036 27.423627 4.622242 0.549703 1.756213 4.067144 2.863924 5.939140 11.002356 8.483725 -12.885842 74.831016 -2.051235 23.717756 -7.953707 -2.160172 -2.799679 3.811813 
0.000000 0.000000 0.000000 -159.077472 5.673359 0.366309 -1.530498 -0.422526 1.439129 -0.378727 -0.495629 0.062968 12.142660 -4.135914 -1.676565 0.000000 -0.000000 0.000000 -2.981291 0.349321 -0.420953 -0.568289 0.457671 -0.344256 -7.974776 -6.102165 0.327839 0.000000 -0.000000 0.000000 0.935925 -1.230650 -0.202405 0.850018 -6.926300 -0.180201 0.312865 5.421584 -0.033437 -1.141835 14.830320 0.168068 -2.204116 -8.475563 0.748105 -1.351442 4.577512 -6.059763 -9.923997 -13.215036 -78.734044 -1.321983 27.423068 4.621786 0.546677 1.758816 4.066044 2.859253 5.939737 10.996842 8.488245 -12.890972 74.830988 -2.044756 23.727012 -7.954049 -2.159872 -2.799211 3.810090 
0.000000 0.000000 0.000000 -159.080561 5.676113 0.366252 -1.525994 -0.422410 1.439791 -0.379650 -0.496401 0.063641 12.143477 -4.138904 -1.677958 0.000000 -0.000000 0.000000 -2.978032 0.348379 -0.418857 -0.567981 0.457803 -0.346341 -7.974693 -6.104602 0.328331 0.000000 -0.000000 0.000000 0.930738 -1.228210 -0.200358 0.845224 -6.924128 -0.178376 0.311135 5.422404 -0.032948 -1.142012 14.828455 0.167339 -2.204203 -8.479038 0.746843 -1.349451 4.571411 -6.061699 -9.917182 -13.212956 -78.737096 -1.324088 27.428385 4.622313 0.547121 1.755896 4.065552 2.859165 5.940967 10.990968 8.504593 -12.896579 74.824743 -2.037607 23.723621 -7.953100 -2.160988 -2.796864 3.815400 
0.000000 0.000000 0.000000 -159.082950 5.679433 0.366697 -1.522168 -0.423028 1.439761 -0.380215 -0.497680 0.064467 12.143947 -4.141181 -1.679387 0.000000 -0.000000 0.000000 -2.972701 0.346970 -0.416811 -0.570371 0.457187 -0.349620 -7.975190 -6.106439 0.329397 0.000000 -0.000000 0.000000 0.924714 -1.224647 -0.197670 0.839629 -6.920960 -0.175979 0.309126 5.423599 -0.032277 -1.141752 14.824361 0.164358 -2.202650 -8.486707 0.741238 -1.346157 4.565285 -6.064340 -9.907844 -13.212241 -78.741818 -1.326081 27.435296 4.623045 0.549466 1.749467 4.065341 2.861284 5.942706 10.985139 8.526619 -12.902897 74.815148 -2.029956 23.713869 -7.951336 -2.162807 -2.794130 3.824006 
0.000000 0.000000 0.000000 -159.085142 5.682881 0.366983 -1.517434 -0.424286 1.440080 -0.380784 -0.497997 0.065040 12.143224 -4.143685 -1.680880 0.000000 -0.000000 0.000000 -2.970602 0.345799 -0.415227 -0.569730 0.455741 -0.351503 -7.975561 -6.107507 0.329841 0.000000 -0.000000 0.000000 0.919995 -1.221013 -0.195501 0.835241 -6.917728 -0.174043 0.307554 5.424817 -0.031731 -1.140613 14.821463 0.162685 -2.199928 -8.492140 0.737726 -1.345580 4.560958 -6.065379 -9.906378 -13.210977 -78.745867 -1.327316 27.434607 4.624825 0.551612 1.743370 4.064484 2.860485 5.944432 10.980498 8.540087 -12.909966 74.807698 -2.022373 23.709532 -7.948382 -2.163658 -2.793955 3.829429 
